<svg width="332" height="94" viewBox="0 0 332 94" fill="none" xmlns="http://www.w3.org/2000/svg">
<g style="mix-blend-mode:darken">
<path d="M11.4329 60.96C9.44888 60.96 7.56088 60.416 5.76888 59.328C3.97688 58.176 2.63288 56.448 1.73688 54.144C1.41688 53.312 1.19288 52.448 1.06488 51.552C0.936875 50.592 0.872875 49.664 0.872875 48.768C0.872875 47.872 1.03288 47.424 1.35288 47.424C1.73688 47.424 1.92888 47.68 1.92888 48.192C1.92888 51.2 2.66488 53.472 4.13688 55.008C5.67288 56.544 7.56088 57.312 9.80088 57.312C12.0409 57.312 14.1849 56.672 16.2329 55.392C18.3449 54.112 20.2969 52.48 22.0889 50.496C25.0329 47.296 27.5289 44.064 29.5769 40.8C31.6249 37.472 33.4809 34.08 35.1449 30.624C36.8729 27.104 38.6009 23.456 40.3289 19.68C41.4169 17.376 42.7609 15.36 44.3609 13.632C46.0249 11.904 48.0089 10.72 50.3129 10.08L50.4089 9.984H45.1289C42.8889 9.984 40.5209 10.08 38.0249 10.272C35.5289 10.464 33.2569 10.88 31.2089 11.52C29.2249 12.16 27.7849 13.12 26.8889 14.4C26.3129 15.232 26.0249 16.192 26.0249 17.28C26.0249 18.368 26.3129 19.424 26.8889 20.448C27.4649 21.472 28.2009 22.208 29.0969 22.656C29.2249 22.784 29.2889 22.88 29.2889 22.944C29.2889 23.072 29.1289 23.232 28.8089 23.424C28.5529 23.552 28.2649 23.584 27.9449 23.52C27.4329 23.2 26.7929 22.688 26.0249 21.984C25.2569 21.216 24.5529 20.416 23.9129 19.584C23.3369 18.752 22.9529 18.048 22.7609 17.472C22.5049 16.704 22.3769 15.936 22.3769 15.168C22.3769 13.632 22.9209 12.384 24.0089 11.424C25.1609 10.464 26.6329 9.728 28.4249 9.216C30.2169 8.704 32.1369 8.352 34.1849 8.16C36.2969 7.904 38.3129 7.776 40.2329 7.776C42.2169 7.712 43.9129 7.68 45.3209 7.68H55.6889C55.8169 7.68 55.8809 7.712 55.8809 7.776C55.8809 7.968 55.6569 8.256 55.2089 8.64C54.8249 8.96 54.5689 9.12 54.4409 9.12C52.8409 9.44 51.6569 10.304 50.8889 11.712C50.1209 13.056 49.7689 15.232 49.8329 18.24C49.8329 18.24 49.8329 18.944 49.8329 20.352C49.8969 21.76 49.9609 23.584 50.0249 25.824C50.0889 28.064 50.1529 30.464 50.2169 33.024C50.2809 35.584 50.3449 38.048 50.4089 40.416C50.4729 42.784 50.5369 44.768 50.6009 46.368V46.944L83.9129 11.808C86.0249 9.568 88.1049 7.68 90.1529 6.144C92.2649 4.544 94.4409 3.84 96.6809 4.032C96.7449 4.032 96.7769 4.064 96.7769 4.128C96.8409 4.128 96.8729 4.128 96.8729 4.128C96.8729 4.32 96.7449 4.54399 96.4889 4.8C96.2329 5.056 95.9449 5.216 95.6249 5.27999C93.9609 5.216 92.4569 5.856 91.1129 7.2C89.7689 8.544 88.5209 10.144 87.3689 12C86.7929 12.96 85.9289 14.496 84.7769 16.608C83.6249 18.656 82.3129 21.088 80.8409 23.904C79.4329 26.72 77.9929 29.696 76.5209 32.832C75.0489 35.968 73.6729 39.04 72.3929 42.048C71.1769 45.056 70.1849 47.808 69.4169 50.304C68.6489 52.736 68.2649 54.72 68.2649 56.256C68.2649 58.048 68.8729 58.944 70.0889 58.944C70.6009 58.944 71.1449 58.816 71.7209 58.56C72.5529 58.24 73.4809 57.76 74.5049 57.12C75.5289 56.48 76.4569 55.744 77.2889 54.912C78.9529 53.312 80.4249 51.68 81.7049 50.016C82.9849 48.288 83.7529 47.296 84.0089 47.04C84.2009 46.784 84.3609 46.656 84.4889 46.656C84.7449 46.656 84.8729 46.848 84.8729 47.232C84.8729 47.616 84.7449 47.968 84.4889 48.288C83.9769 48.928 83.1129 50.048 81.8969 51.648C80.6809 53.184 79.2409 54.752 77.5769 56.352C75.9769 57.952 74.2489 59.168 72.3929 60C71.8169 60.256 71.2089 60.448 70.5689 60.576C69.9289 60.768 69.2889 60.864 68.6489 60.864C67.2409 60.864 65.9609 60.448 64.8089 59.616C63.7209 58.72 63.1769 57.248 63.1769 55.2C63.1769 53.216 63.6249 50.976 64.5209 48.48C65.4809 45.92 66.5369 43.456 67.6889 41.088C68.9049 38.656 69.8969 36.608 70.6649 34.944C71.4969 33.216 72.5529 31.008 73.8329 28.32C75.1129 25.632 76.5849 22.912 78.2489 20.16L50.6009 49.344C50.5369 49.856 50.3129 50.368 49.9289 50.88C49.5449 51.328 48.9369 51.712 48.1049 52.032C47.6569 52.224 47.0489 52.736 46.2809 53.568C45.5129 54.4 45.0009 54.976 44.7449 55.296C44.7449 55.36 44.6489 55.392 44.4569 55.392C44.2649 55.392 44.0729 55.328 43.8809 55.2C43.6889 55.072 43.6249 54.976 43.6889 54.912C45.3529 52.8 46.2169 49.888 46.2809 46.176L46.3769 43.872C46.5049 41.184 46.6009 38.368 46.6649 35.424C46.7289 32.416 46.7609 29.632 46.7609 27.072C46.8249 24.448 46.8569 22.336 46.8569 20.736C46.8569 19.072 46.8569 18.24 46.8569 18.24C46.8569 16.704 47.0809 15.36 47.5289 14.208C47.9769 13.056 48.5209 12.064 49.1609 11.232C48.0729 12.064 47.0169 13.056 45.9929 14.208C44.9689 15.36 44.1049 16.64 43.4009 18.048C42.4409 20.032 41.3529 22.592 40.1369 25.728C38.9209 28.864 37.5129 32.192 35.9129 35.712C34.3769 39.232 32.6489 42.688 30.7289 46.08C28.8729 49.408 26.7929 52.288 24.4889 54.72C22.8889 56.448 20.8409 57.92 18.3449 59.136C15.9129 60.352 13.6089 60.96 11.4329 60.96ZM73.3604 93.6C70.9284 93.6 68.5924 93.024 66.3524 91.872C64.0484 90.784 62.3524 89.088 61.2644 86.784C60.8804 85.952 60.6244 85.056 60.4964 84.096C60.3684 83.2 60.3044 82.304 60.3044 81.408V80.352C60.3044 79.84 60.3684 79.36 60.4964 78.912C60.6244 78.528 60.9444 78.336 61.4564 78.336C61.5844 78.336 61.6484 78.4 61.6484 78.528C61.6484 78.912 61.6164 79.296 61.5524 79.68C61.4884 80.064 61.4564 80.48 61.4564 80.928C61.4564 83.872 62.4164 86.112 64.3364 87.648C66.1924 89.184 68.5284 89.952 71.3444 89.952C72.4964 89.952 73.6804 89.824 74.8964 89.568C76.1124 89.312 77.2644 88.96 78.3524 88.512C82.3844 86.784 85.8724 84.32 88.8164 81.12C91.8244 77.984 94.4484 74.432 96.6884 70.464C98.9284 66.496 100.944 62.464 102.736 58.368C103.76 55.936 104.656 53.568 105.424 51.264C106.256 48.96 106.992 46.88 107.632 45.024C106.992 45.92 106.16 47.008 105.136 48.288C104.112 49.568 103.088 50.816 102.064 52.032C101.04 53.184 100.144 54.112 99.3764 54.816C97.7764 56.352 96.0484 57.664 94.1924 58.752C92.4004 59.776 90.5444 60.288 88.6244 60.288C87.9844 60.288 87.4404 60.16 86.9924 59.904C86.5444 59.648 86.3204 59.168 86.3204 58.464C86.3204 57.568 86.5444 56.512 86.9924 55.296C87.5044 54.08 88.0484 52.864 88.6244 51.648C89.2004 50.432 89.6804 49.44 90.0644 48.672C90.8324 47.2 91.5684 45.728 92.2724 44.256C92.9764 42.784 93.5844 41.536 94.0964 40.512C94.6084 39.552 94.8644 38.912 94.8644 38.592C94.8644 38.08 94.4804 38.08 93.7124 38.592C93.0084 39.104 92.3364 39.616 91.6964 40.128C90.2884 41.472 88.8164 43.072 87.2804 44.928C85.7444 46.72 84.5604 48.16 83.7284 49.248C83.5364 49.504 83.3764 49.632 83.2484 49.632C83.1204 49.632 83.0564 49.472 83.0564 49.152C83.0564 48.64 83.2164 48.16 83.5364 47.712C84.4324 46.432 85.4884 45.024 86.7044 43.488C87.9204 41.952 89.1684 40.48 90.4484 39.072C91.6644 37.792 92.9124 36.544 94.1924 35.328C95.4724 34.112 97.1044 33.504 99.0884 33.504C100.432 33.504 101.104 34.016 101.104 35.04C101.104 35.936 100.72 36.96 99.9524 38.112C99.5044 38.816 98.8004 40 97.8404 41.664C96.8804 43.328 95.8884 45.152 94.8644 47.136C93.9044 49.056 93.0724 50.848 92.3684 52.512C91.6644 54.176 91.3124 55.392 91.3124 56.16C91.3124 57.056 91.7604 57.504 92.6564 57.504C93.3604 57.504 94.2244 57.152 95.2484 56.448C96.2724 55.68 97.3284 54.784 98.4164 53.76C100.272 51.968 101.968 49.984 103.504 47.808C105.104 45.632 106.48 43.552 107.632 41.568C107.824 41.248 108.144 40.672 108.592 39.84C109.104 39.008 109.616 38.208 110.128 37.44C110.704 36.672 111.152 36.224 111.472 36.096C111.792 35.968 112.432 35.616 113.392 35.04C114.352 34.464 115.312 34.08 116.272 33.888C117.168 33.696 117.84 33.6 118.288 33.6C118.992 33.6 119.344 33.792 119.344 34.176C119.344 34.688 119.056 34.944 118.48 34.944C117.776 34.944 117.136 35.136 116.56 35.52C115.984 35.84 115.536 36.256 115.216 36.768C114.64 37.6 113.808 39.104 112.72 41.28C111.696 43.456 110.544 45.984 109.264 48.864C108.048 51.68 106.832 54.56 105.616 57.504C104.4 60.384 103.28 63.04 102.256 65.472C100.72 69.12 98.9604 72.672 96.9764 76.128C94.9924 79.648 92.6564 82.784 89.9684 85.536C87.3444 88.352 84.2084 90.56 80.5604 92.16C78.3844 93.12 75.9844 93.6 73.3604 93.6ZM130.547 61.824C130.099 61.824 129.747 61.696 129.491 61.44C129.235 61.248 129.235 61.088 129.491 60.96C130.899 60.704 132.115 60.192 133.139 59.424C134.163 58.592 134.995 57.568 135.635 56.352C136.979 54.112 138.291 51.872 139.571 49.632C140.915 47.328 142.195 45.024 143.411 42.72C144.883 39.904 146.387 37.088 147.923 34.272C149.459 31.392 150.995 28.544 152.531 25.728C154.003 23.104 155.315 20.576 156.467 18.144C157.619 15.712 158.483 13.952 159.059 12.864C159.507 12.032 160.275 11.296 161.363 10.656C162.515 9.952 163.635 9.408 164.723 9.024C164.339 9.024 163.955 9.024 163.571 9.024C163.187 8.96 162.771 8.928 162.323 8.928C160.339 8.928 158.163 9.056 155.795 9.312C153.491 9.504 151.219 9.824 148.979 10.272C146.803 10.72 144.883 11.328 143.219 12.096C141.555 12.864 140.435 13.792 139.859 14.88C139.603 15.456 139.379 16.032 139.187 16.608C138.995 17.184 138.899 17.76 138.899 18.336C138.899 19.808 139.411 20.864 140.435 21.504C140.499 21.504 140.531 21.568 140.531 21.696C140.531 21.824 140.403 21.952 140.147 22.08C139.955 22.208 139.795 22.24 139.667 22.176C139.027 21.856 138.291 21.088 137.459 19.872C136.691 18.592 136.179 17.536 135.923 16.704C135.731 15.936 135.635 15.232 135.635 14.592C135.635 12.928 136.179 11.648 137.267 10.752C138.355 9.792 139.731 9.12 141.395 8.736C143.059 8.288 144.755 8.032 146.483 7.96799C148.275 7.84 149.843 7.776 151.187 7.776C153.235 7.776 155.667 7.776 158.483 7.776C161.299 7.712 163.891 7.68 166.259 7.68C166.835 7.68 167.475 7.68 168.179 7.68C168.883 7.616 169.619 7.584 170.387 7.584C172.115 7.584 173.907 7.68 175.763 7.872C177.619 8.064 179.315 8.48 180.851 9.12C182.387 9.76 183.571 10.752 184.403 12.096C185.683 14.08 186.323 16.192 186.323 18.432C186.323 20.928 185.587 23.296 184.115 25.536C182.707 27.712 180.915 29.632 178.739 31.296C176.563 32.96 174.355 34.24 172.115 35.136C170.003 35.968 167.635 36.544 165.011 36.864C162.451 37.184 160.147 37.344 158.099 37.344C157.459 37.344 156.819 37.344 156.179 37.344C155.603 37.28 155.091 37.216 154.643 37.152C154.515 37.152 154.451 37.088 154.451 36.96C154.451 36.704 154.707 36.352 155.219 35.904C155.731 35.392 156.147 35.168 156.467 35.232C156.979 35.296 157.491 35.328 158.003 35.328C158.515 35.328 159.059 35.328 159.635 35.328C162.067 35.328 164.659 35.008 167.411 34.368C170.163 33.728 172.691 32.512 174.995 30.72C177.363 28.864 179.155 26.176 180.371 22.656C180.691 21.888 180.883 21.12 180.947 20.352C181.075 19.52 181.139 18.72 181.139 17.952C181.139 15.776 180.595 13.856 179.507 12.192C178.419 10.528 176.851 9.568 174.803 9.312C174.547 9.248 174.259 9.216 173.939 9.216C173.619 9.216 173.299 9.216 172.979 9.216C171.763 9.216 170.419 9.376 168.947 9.696C167.539 10.016 166.483 10.624 165.779 11.52C164.179 13.632 162.643 16.032 161.171 18.72C159.699 21.344 158.291 24.032 156.947 26.784C155.603 29.472 154.323 32 153.107 34.368C152.787 35.008 152.179 36.16 151.283 37.824C150.387 39.424 149.395 41.28 148.307 43.392C147.219 45.44 146.195 47.488 145.235 49.536C144.275 51.584 143.507 53.408 142.931 55.008C142.419 56.608 142.291 57.696 142.547 58.272C142.611 58.336 142.643 58.432 142.643 58.56C142.643 58.752 142.547 58.848 142.355 58.848C141.843 58.848 141.331 58.72 140.819 58.464C140.307 58.208 139.699 58.08 138.995 58.08C138.355 58.08 137.715 58.24 137.075 58.56C136.435 58.816 135.603 59.296 134.579 60C133.555 60.704 132.403 61.28 131.123 61.728C130.995 61.792 130.803 61.824 130.547 61.824ZM198.613 60.576C197.653 60.576 196.789 60.384 196.021 60C195.317 59.616 194.965 58.912 194.965 57.888C194.965 57.312 195.093 56.672 195.349 55.968C195.925 54.496 196.693 52.704 197.653 50.592C198.677 48.48 199.701 46.432 200.725 44.448C201.749 42.4 202.549 40.736 203.125 39.456C203.509 38.688 203.701 38.144 203.701 37.824C203.701 37.248 203.381 37.12 202.741 37.44C202.101 37.76 201.397 38.208 200.629 38.784C199.861 39.36 199.285 39.808 198.901 40.128C197.237 41.664 195.477 43.488 193.621 45.6C191.829 47.648 190.165 49.824 188.629 52.128C187.157 54.368 186.005 56.608 185.173 58.848C185.109 59.232 184.693 59.552 183.925 59.808C183.157 60.064 182.453 60.192 181.813 60.192C180.789 60.192 180.405 59.872 180.661 59.232C182.133 55.904 183.637 52.224 185.173 48.192C186.773 44.16 188.565 40.032 190.549 35.808C192.021 32.608 193.653 29.312 195.445 25.92C197.301 22.528 199.349 19.296 201.589 16.224C203.829 13.088 206.293 10.336 208.981 7.96799C211.349 5.92 213.941 4.256 216.757 2.976C219.637 1.632 222.741 0.959999 226.069 0.959999C227.541 0.959999 228.821 1.28 229.909 1.92C230.997 2.496 231.605 3.552 231.733 5.088V5.952C231.733 6.848 231.637 7.744 231.445 8.64C231.381 8.896 231.125 9.024 230.677 9.024C230.485 9.024 230.421 8.992 230.485 8.928C230.741 7.264 230.293 6.08 229.141 5.376C228.053 4.672 226.645 4.32 224.917 4.32C221.781 4.32 218.901 4.896 216.277 6.048C213.653 7.2 211.221 8.736 208.981 10.656C205.525 13.664 202.517 17.504 199.957 22.176C197.397 26.848 195.189 31.616 193.333 36.48C192.437 38.848 191.541 41.216 190.645 43.584C189.813 45.952 189.013 48.16 188.245 50.208C191.125 46.368 193.877 43.072 196.501 40.32C199.189 37.568 201.525 35.616 203.509 34.464C205.109 33.568 206.549 33.12 207.829 33.12C209.045 33.12 209.653 33.632 209.653 34.656C209.653 35.552 209.205 36.704 208.309 38.112C207.861 38.816 207.157 40 206.197 41.664C205.301 43.328 204.341 45.152 203.317 47.136C202.357 49.056 201.525 50.848 200.821 52.512C200.117 54.176 199.765 55.392 199.765 56.16C199.765 57.184 200.213 57.696 201.109 57.696C201.621 57.696 202.197 57.536 202.837 57.216C203.541 56.896 204.053 56.608 204.373 56.352C206.101 55.072 207.797 53.504 209.461 51.648C211.125 49.792 212.533 48.16 213.685 46.752C213.749 46.688 213.781 46.784 213.781 47.04C213.781 47.296 213.717 47.68 213.589 48.192C213.525 48.64 213.333 49.024 213.013 49.344C212.309 50.304 211.573 51.232 210.805 52.128C210.101 52.96 209.397 53.792 208.693 54.624C207.477 56.032 206.005 57.376 204.277 58.656C202.613 59.936 200.725 60.576 198.613 60.576ZM214.159 60.192C213.135 60.192 212.207 60 211.375 59.616C210.607 59.168 210.223 58.24 210.223 56.832C210.223 54.592 210.799 52.352 211.951 50.112C213.103 47.808 214.287 45.792 215.503 44.064C216.591 42.592 217.807 41.216 219.151 39.936C220.559 38.592 222.063 37.44 223.663 36.48C224.687 35.84 226.063 35.168 227.791 34.464C229.583 33.696 231.087 33.312 232.303 33.312C233.327 33.312 234.223 33.6 234.991 34.176C235.759 34.688 236.143 35.648 236.143 37.056C236.143 39.232 235.567 41.472 234.415 43.776C233.327 46.016 232.175 48 230.959 49.728C230.383 50.496 229.807 51.232 229.231 51.936C228.655 52.576 228.015 53.248 227.311 53.952C229.679 53.952 231.855 53.28 233.839 51.936C235.823 50.528 237.551 48.832 239.023 46.848L239.215 46.656C239.407 46.656 239.503 46.848 239.503 47.232C239.503 47.68 239.375 48.096 239.119 48.48C237.839 50.272 236.239 51.872 234.319 53.28C232.399 54.624 230.223 55.296 227.791 55.296C227.535 55.296 227.279 55.296 227.023 55.296C226.767 55.296 226.511 55.264 226.255 55.2C222.671 58.528 218.639 60.192 214.159 60.192ZM216.655 58.56C217.551 58.56 218.511 58.24 219.535 57.6C220.623 56.96 221.455 56.352 222.031 55.776C223.119 54.688 224.111 53.536 225.007 52.32C225.903 51.04 226.735 49.76 227.503 48.48C228.399 46.944 229.295 45.12 230.191 43.008C231.087 40.896 231.535 38.912 231.535 37.056C231.535 35.584 231.023 34.848 229.999 34.848C229.167 34.848 228.143 35.2 226.927 35.904C225.775 36.608 224.911 37.248 224.335 37.824C222.159 40.064 220.335 42.496 218.863 45.12C218.031 46.592 217.135 48.32 216.175 50.304C215.215 52.288 214.735 54.112 214.735 55.776C214.735 56.032 214.735 56.288 214.735 56.544C214.799 56.736 214.863 56.96 214.927 57.216C215.183 58.112 215.759 58.56 216.655 58.56ZM241.87 60.288C241.23 60.288 240.686 60.16 240.238 59.904C239.79 59.648 239.566 59.168 239.566 58.464C239.566 57.568 239.79 56.512 240.238 55.296C240.75 54.08 241.294 52.864 241.87 51.648C242.446 50.432 242.926 49.44 243.31 48.672C243.63 48.096 244.046 47.2 244.558 45.984C245.134 44.704 245.71 43.392 246.286 42.048C246.926 40.64 247.438 39.456 247.822 38.496C248.27 37.536 248.494 37.056 248.494 37.056C247.918 37.696 247.15 38.592 246.19 39.744C245.294 40.896 244.302 42.112 243.214 43.392C242.19 44.608 241.23 45.76 240.334 46.848C239.502 47.936 238.894 48.736 238.51 49.248C238.318 49.504 238.158 49.632 238.03 49.632C237.902 49.632 237.838 49.472 237.838 49.152C237.838 48.64 237.998 48.16 238.318 47.712C239.086 46.752 240.014 45.6 241.102 44.256C242.19 42.848 243.278 41.44 244.366 40.032C245.518 38.624 246.51 37.376 247.342 36.288C246.83 36.288 246.158 36.32 245.326 36.384C244.558 36.448 243.854 36.544 243.214 36.672C242.574 36.736 242.222 36.768 242.158 36.768C241.838 36.768 241.87 36.512 242.254 36C242.638 35.488 243.15 34.976 243.79 34.464C244.43 33.952 244.91 33.696 245.23 33.696C245.294 33.696 245.806 33.728 246.766 33.792C247.726 33.792 248.43 33.792 248.878 33.792C250.158 32.064 251.406 30.08 252.622 27.84C253.902 25.6 255.15 23.136 256.366 20.448C256.878 20.384 257.742 20.032 258.958 19.392C260.238 18.688 261.23 17.984 261.934 17.28C262.254 16.96 262.51 16.8 262.702 16.8C263.086 16.8 263.086 17.056 262.702 17.568C262.254 18.08 261.486 19.168 260.398 20.832C259.31 22.432 258.094 24.384 256.75 26.688C255.406 28.928 254.126 31.296 252.91 33.792H260.686C261.39 33.792 261.742 33.888 261.742 34.08C261.742 34.336 261.262 34.592 260.302 34.848C259.214 35.168 258.062 35.36 256.846 35.424C255.694 35.488 254.606 35.616 253.582 35.808C252.622 36 251.918 36.416 251.47 37.056C251.086 37.504 250.542 38.464 249.838 39.936C249.134 41.408 248.366 43.104 247.534 45.024C246.766 46.88 246.094 48.768 245.518 50.688C244.942 52.544 244.59 54.112 244.462 55.392V55.776C244.462 56.288 244.622 56.704 244.942 57.024C245.262 57.344 245.582 57.504 245.902 57.504C246.734 57.504 247.79 56.992 249.07 55.968C250.414 54.944 251.79 53.728 253.198 52.32C254.606 50.848 255.822 49.504 256.846 48.288C257.294 47.776 257.678 47.296 257.998 46.848C258.382 46.4 258.606 46.112 258.67 45.984C258.798 46.24 258.862 46.432 258.862 46.56C258.862 46.944 258.734 47.36 258.478 47.808C258.286 48.256 258.062 48.64 257.806 48.96C256.59 50.56 255.118 52.256 253.39 54.048C251.662 55.776 249.806 57.248 247.822 58.464C245.902 59.68 243.918 60.288 241.87 60.288ZM258.597 60.192C257.573 60.192 256.645 60 255.813 59.616C255.045 59.168 254.661 58.24 254.661 56.832C254.661 54.592 255.237 52.352 256.389 50.112C257.541 47.808 258.725 45.792 259.941 44.064C261.029 42.592 262.245 41.216 263.589 39.936C264.997 38.592 266.501 37.44 268.101 36.48C269.125 35.84 270.501 35.168 272.229 34.464C274.021 33.696 275.525 33.312 276.741 33.312C277.765 33.312 278.661 33.6 279.429 34.176C280.197 34.688 280.581 35.648 280.581 37.056C280.581 39.232 280.005 41.472 278.853 43.776C277.765 46.016 276.613 48 275.397 49.728C274.821 50.496 274.245 51.232 273.669 51.936C273.093 52.576 272.453 53.248 271.749 53.952C274.117 53.952 276.293 53.28 278.277 51.936C280.261 50.528 281.989 48.832 283.461 46.848L283.653 46.656C283.845 46.656 283.941 46.848 283.941 47.232C283.941 47.68 283.813 48.096 283.557 48.48C282.277 50.272 280.677 51.872 278.757 53.28C276.837 54.624 274.661 55.296 272.229 55.296C271.973 55.296 271.717 55.296 271.461 55.296C271.205 55.296 270.949 55.264 270.693 55.2C267.109 58.528 263.077 60.192 258.597 60.192ZM261.093 58.56C261.989 58.56 262.949 58.24 263.973 57.6C265.061 56.96 265.893 56.352 266.469 55.776C267.557 54.688 268.549 53.536 269.445 52.32C270.341 51.04 271.173 49.76 271.941 48.48C272.837 46.944 273.733 45.12 274.629 43.008C275.525 40.896 275.973 38.912 275.973 37.056C275.973 35.584 275.461 34.848 274.437 34.848C273.605 34.848 272.581 35.2 271.365 35.904C270.213 36.608 269.349 37.248 268.773 37.824C266.597 40.064 264.773 42.496 263.301 45.12C262.469 46.592 261.573 48.32 260.613 50.304C259.653 52.288 259.173 54.112 259.173 55.776C259.173 56.032 259.173 56.288 259.173 56.544C259.237 56.736 259.301 56.96 259.365 57.216C259.621 58.112 260.197 58.56 261.093 58.56ZM279.971 60.672C279.907 60.736 279.843 60.768 279.779 60.768C279.587 60.768 279.491 60.48 279.491 59.904C279.491 59.52 279.587 59.136 279.779 58.752C280.035 58.304 280.483 58.048 281.123 57.984C282.915 57.856 284.611 57.248 286.211 56.16C287.811 55.072 289.219 53.792 290.435 52.32C291.651 50.784 292.515 49.344 293.027 48L301.859 25.92C303.075 22.912 304.451 20 305.987 17.184C307.587 14.368 309.603 12.064 312.035 10.272C314.531 8.48 317.667 7.584 321.443 7.584C322.915 7.584 324.387 7.776 325.859 8.16C327.395 8.48 328.675 9.024 329.699 9.792C330.723 10.56 331.235 11.648 331.235 13.056C331.235 13.248 331.235 13.44 331.235 13.632C331.235 13.824 331.203 14.016 331.139 14.208C330.947 15.232 330.371 16.256 329.411 17.28C328.515 18.304 327.811 19.584 327.299 21.12C327.235 21.568 326.947 21.792 326.435 21.792C325.987 21.792 325.891 21.504 326.147 20.928C326.659 20.16 327.043 19.264 327.299 18.24C327.619 17.152 327.779 16.064 327.779 14.976C327.779 13.312 327.395 11.84 326.627 10.56C325.859 9.28 324.547 8.64 322.691 8.64C321.027 8.64 319.331 9.12 317.603 10.08C315.875 11.04 314.371 12.704 313.091 15.072L295.331 47.808C293.667 50.88 292.131 53.088 290.723 54.432C289.379 55.712 288.259 56.512 287.363 56.832H310.499C313.571 56.832 316.419 56.736 319.043 56.544C321.667 56.352 323.267 55.872 323.843 55.104C324.483 54.208 324.803 53.248 324.803 52.224C324.803 50.624 323.939 49.44 322.211 48.672C322.019 48.544 321.923 48.416 321.923 48.288C321.923 48.16 321.987 48.032 322.115 47.904C322.307 47.776 322.531 47.776 322.787 47.904C323.363 48.16 324.035 48.736 324.803 49.632C325.635 50.464 326.403 51.392 327.107 52.416C327.811 53.376 328.259 54.144 328.451 54.72C328.643 55.296 328.739 55.872 328.739 56.448C328.739 59.072 326.467 60.384 321.923 60.384C318.339 60.384 314.499 60.256 310.403 60C306.307 59.744 302.243 59.456 298.211 59.136C294.243 58.816 290.499 58.592 286.979 58.464C285.635 58.336 284.291 58.528 282.947 59.04C281.667 59.488 280.675 60.032 279.971 60.672Z" fill="black"/>
</g>
</svg>
